{"title":"Kiss.of.the.Damned.2012.BRRip XViD juggs ","uid":8684003,"size":740263599,"categoryP":"video","categoryS":"movies","magnet":"?xt=urn:btih:59601e64981b965f4b92b4516ddc9591bb7d5673&amp;dn=Kiss.of.the.Damned.2012.BRRip+XViD+juggs+&amp;tr=udp%3A%2F%2Ftracker.openbittorrent.com%3A80&amp;tr=udp%3A%2F%2Fopen.demonii.com%3A1337&amp;tr=udp%3A%2F%2Ftracker.coppersurfer.tk%3A6969&amp;tr=udp%3A%2F%2Fexodus.desync.com%3A6969","seeders":9,"leechers":7,"uploader":"juggs99","files":4,"time":1373756439,"description":"Source : CHD(Thanks)\n &lt;a href=&quot;\nhttp://www.imdb.com/title/tt1959438&quot; rel=&quot;nofollow&quot; target=&quot;_NEW&quot;&gt;\nhttp://www.imdb.com/title/tt1959438&lt;/a&gt;\n\n\nFormat : AVI\nFormat/Info : Audio Video Interleave\nFile size : 697 MiB\nDuration : 1h 35mn\nOverall bit rate : 1 021 Kbps\nWriting library : VirtualDub build 32842/release\n\nVideo\nID : 0\nFormat : MPEG-4 Visual\nFormat profile : Advanced Simple@L5\nFormat settings, BVOP : 2\nFormat settings, QPel : No\nFormat settings, GMC : No warppoints\nFormat settings, Matrix : Default (H.263)\nMuxing mode : Packed bitstream\nCodec ID : XVID\nCodec ID/Hint : XviD\nDuration : 1h 35mn\nBit rate : 884 Kbps\nWidth : 640 pixels\nHeight : 272 pixels\nDisplay aspect ratio : 2.35:1\nFrame rate : 23.976 fps\nColor space : YUV\nChroma subsampling : 4:2:0\nBit depth : 8 bits\nScan type : Progressive\nCompression mode : Lossy\nBits/(Pixel*Frame) : 0.212\nStream size : 603 MiB (87%)\nWriting library : XviD 64\n\nAudio\nID : 1\nFormat : MPEG Audio\nFormat version : Version 1\nFormat profile : Layer 3\nCodec ID : 55\nCodec ID/Hint : MP3\nDuration : 1h 35mn\nBit rate mode : Constant\nBit rate : 128 Kbps\nChannel(s) : 2 channels\nSampling rate : 48.0 KHz\nCompression mode : Lossy\nStream size : 87.4 MiB (13%)\nAlignment : Split accross interleaves\nInterleave, duration : 42 ms (1.00 video frame)\nInterleave, preload duration : 500 ms\nWriting library : LAME3.99r\n\n &lt;a href=&quot;\nhttp://img69.imageshack.us/img69/4261/rlhy.png&quot; rel=&quot;nofollow&quot; target=&quot;_NEW&quot;&gt;\nhttp://img69.imageshack.us/img69/4261/rlhy.png&lt;/a&gt; &lt;a href=&quot;\nhttp://img853.imageshack.us/img853/2832/pv9.png&quot; rel=&quot;nofollow&quot; target=&quot;_NEW&quot;&gt;\nhttp://img853.imageshack.us/img853/2832/pv9.png&lt;/a&gt; &lt;a href=&quot;\nhttp://img17.imageshack.us/img17/659/0jui.png&quot; rel=&quot;nofollow&quot; target=&quot;_NEW&quot;&gt;\nhttp://img17.imageshack.us/img17/659/0jui.png&lt;/a&gt;","torrent":{"xt":"urn:btih:59601e64981b965f4b92b4516ddc9591bb7d5673","amp;dn":"Kiss.of.the.Damned.2012.BRRip+XViD+juggs+","amp;tr":["udp%3A%2F%2Ftracker.openbittorrent.com%3A80","udp%3A%2F%2Fopen.demonii.com%3A1337","udp%3A%2F%2Ftracker.coppersurfer.tk%3A6969","udp%3A%2F%2Fexodus.desync.com%3A6969"],"infoHash":"59601e64981b965f4b92b4516ddc9591bb7d5673","infoHashBuffer":{"type":"Buffer","data":[89,96,30,100,152,27,150,95,75,146,180,81,109,220,149,145,187,125,86,115]},"announce":[],"urlList":[]}}